<svg xmlns="http://www.w3.org/2000/svg" viewBox="0 0 136 20" role="img" aria-label="Kurtosys">
  <path fill="#FFFFFF" d="M50.9,7.2c0-3.9-2.9-6.5-7.6-6.5h-7v18.9h4.5v-6.2h2.3l3.5,6.2v0.1h5.1l-4.2-7C49.7,11.7,51,9.5,50.9,7.2L50.9,7.2z M44,9.4h-3.1V4.9H44c1.2,0,2.2,1,2.2,2.2S45.2,9.4,44,9.4z"/>
  <path fill="#FFFFFF" d="M73.3,7.9c0.7-1.7,2.4-3,4.3-3.1V0c-4,0.2-7.4,2.6-8.8,6.4l2.7,0.9L73.3,7.9z"/>
  <path fill="#FFFFFF" d="M51.9,4.9h5.7v14.7H62V4.9h5.7V0.7H51.9V4.9z"/>
  <path fill="#FFFFFF" d="M29.7,11.1c0,3.2-1.3,4.7-3.8,4.7s-3.8-1.4-3.8-4.7V0.7h-4.5v10.5c0,5.7,3.3,8.8,8.3,8.8s8.3-3.1,8.3-8.8V0.7h-4.5V11.1z"/>
  <path fill="#FFFFFF" d="M17.1,0.7h-5.5L7,5.3C5.6,6.6,5,7.3,4.7,7.6C4.5,7.8,4.5,7.8,4.5,7.8h0c0,0,0-0.1,0-0.4c0-0.5,0.1-1.6,0.1-3.7V0.7H0v18.9h4.5v-6.3l1.6-1.6l5.7,7.9v0h5.3L9.1,8.8L17.1,0.7z"/>
  <path fill="#FFFFFF" d="M130.3,7.9c-0.3-0.1-0.7-0.2-1-0.4c-1.8-0.7-3.2-1.1-3.2-2.2c0-0.8,0.8-1.4,2.1-1.4c1.3,0,2.8,0.8,3.3,2.5l4.4-1.2c-0.9-3-3.7-5.2-7.3-5.2c-4.1,0-7.1,2.7-7.1,5.6c0,3.3,2.6,4.6,4.9,5.4c0.6,0.2,1.1,0.4,1.6,0.6c1.9,0.7,3.3,1.2,3.3,2.4c0,0.9-0.8,1.7-2.4,1.7c-2,0-3.3-1.4-3.8-2.9l-4.3,1.1c1.3,3.6,4.1,5.8,8,5.8c4.4,0,7.3-2.4,7.3-5.9C136,10.5,133,8.9,130.3,7.9L130.3,7.9z"/>
  <path fill="#FFFFFF" d="M117,0.7l-3.4,5.1c-0.5,0.8-0.9,1.4-1,1.4h0c0,0-0.4-0.6-1-1.4l-3.4-5.1h-5.1l7.2,10.5v8.4h4.5v-8.4L122,0.7H117z"/>
  <path fill="#FFFFFF" d="M98.3,7.9c-0.3-0.1-0.7-0.2-1-0.4c-1.8-0.7-3.2-1.1-3.2-2.2c0-0.8,0.8-1.4,2.1-1.4c1.3,0,2.8,0.8,3.3,2.5l4.4-1.2c-0.9-3-3.7-5.2-7.3-5.2c-4.1,0-7.1,2.7-7.1,5.6c0,3.3,2.6,4.6,4.9,5.4c0.6,0.2,1.1,0.4,1.6,0.6c1.9,0.7,3.3,1.2,3.3,2.4c0,0.9-0.8,1.7-2.4,1.7c-2,0-3.3-1.4-3.8-2.9l-4.3,1.1c1.3,3.6,4.1,5.8,8,5.8c4.4,0,7.3-2.4,7.3-5.9C104.1,10.5,101.1,8.9,98.3,7.9L98.3,7.9z"/>
  <path fill="#FFFFFF" d="M72.8,9.9c0-0.4,0.1-0.8,0.1-1.2l-4.4-1.4c-1.1,3.9,0.2,7.9,3.3,10.4l2.7-3.8C73.6,12.9,72.8,11.5,72.8,9.9L72.8,9.9z"/>
  <path fill="#FFFFFF" d="M78.5,0v4.8c2.6,0.3,4.6,2.5,4.6,5.1c0,2.9-2.3,5.2-5.1,5.2c-0.9,0-1.8-0.3-2.6-0.7l-2.7,3.8c1.7,1.1,3.4,1.6,5.4,1.6c5.4,0,9.9-4.4,9.9-9.9C87.9,4.6,83.7,0.2,78.5,0L78.5,0z"/>
</svg>
